<?xml version="1.0" encoding="UTF-8" standalone="no" ?>
<!DOCTYPE svg PUBLIC "-//W3C//DTD SVG 1.1//EN" "http://www.w3.org/Graphics/SVG/1.1/DTD/svg11.dtd">
<svg xmlns="http://www.w3.org/2000/svg" xmlns:xlink="http://www.w3.org/1999/xlink" version="1.1" width="1080" height="1080" viewBox="0 0 1080 1080" xml:space="preserve">
<desc>Created with Fabric.js 5.2.4</desc>
<defs>
</defs>
<g transform="matrix(1 0 0 1 540 540)" id="def2ce60-7b89-4887-b305-bb2ed9189df0"  >
<rect style="stroke: none; stroke-width: 1; stroke-dasharray: none; stroke-linecap: butt; stroke-dashoffset: 0; stroke-linejoin: miter; stroke-miterlimit: 4; fill: rgb(255,255,255); fill-rule: nonzero; opacity: 1; visibility: hidden;" vector-effect="non-scaling-stroke"  x="-540" y="-540" rx="0" ry="0" width="1080" height="1080" />
</g>
<g transform="matrix(1 0 0 1 540 540)" id="3d3d2376-f3a6-40a5-9492-1f701f9cda09"  >
</g>
<g transform="matrix(1 0 0 1 540 540)"  >
<g style="" vector-effect="non-scaling-stroke"   >
		<g transform="matrix(1 0 0 1 0 0)"  >
<polygon style="stroke: none; stroke-width: 1; stroke-dasharray: none; stroke-linecap: butt; stroke-dashoffset: 0; stroke-linejoin: miter; stroke-miterlimit: 4; fill: rgb(208,40,40); fill-rule: nonzero; opacity: 1;" vector-effect="non-scaling-stroke"  points="-28.61,-21.38 -30.62,-18.38 49.43,-18.38 49.43,18.38 -49.43,18.38 -49.43,-18.38 -33.15,-18.38 -32.03,-21.38 -52.42,-21.38 -52.42,21.38 52.42,21.38 52.42,-21.38 -28.61,-21.38 " />
</g>
		<g transform="matrix(1 0 0 1 -41.71 -9.13)"  >
<polygon style="stroke: none; stroke-width: 1; stroke-dasharray: none; stroke-linecap: butt; stroke-dashoffset: 0; stroke-linejoin: miter; stroke-miterlimit: 4; fill: rgb(208,40,40); fill-rule: nonzero; opacity: 1;" vector-effect="non-scaling-stroke"  points="1.09,-3.63 1.09,5.57 -1.09,5.57 -1.09,-3.63 -4,-3.63 -4,-5.58 4,-5.58 4,-3.63 1.09,-3.63 " />
</g>
		<g transform="matrix(1 0 0 1 -33.16 -9.13)"  >
<path style="stroke: none; stroke-width: 1; stroke-dasharray: none; stroke-linecap: butt; stroke-dashoffset: 0; stroke-linejoin: miter; stroke-miterlimit: 4; fill: rgb(208,40,40); fill-rule: nonzero; opacity: 1;" vector-effect="non-scaling-stroke"  transform=" translate(-19.84, -12.88)" d="M 22.46 18.45 L 21.8 16.45 L 17.8 16.45 L 17.13 18.45 L 14.9 18.45 L 19 7.3 L 20.71 7.3 L 24.78 18.45 Z M 19.86 10.59 L 18.45 14.649999999999999 L 21.22 14.649999999999999 Z" stroke-linecap="round" />
</g>
		<g transform="matrix(1 0 0 1 -22.63 -9.13)"  >
<polygon style="stroke: none; stroke-width: 1; stroke-dasharray: none; stroke-linecap: butt; stroke-dashoffset: 0; stroke-linejoin: miter; stroke-miterlimit: 4; fill: rgb(208,40,40); fill-rule: nonzero; opacity: 1;" vector-effect="non-scaling-stroke"  points="2.33,5.57 -2.09,-1.27 -2.09,5.57 -4.27,5.57 -4.27,-5.58 -2.32,-5.58 2.09,1.26 2.09,-5.58 4.27,-5.58 4.27,5.57 2.33,5.57 " />
</g>
		<g transform="matrix(1 0 0 1 -11.7 -9.13)"  >
<path style="stroke: none; stroke-width: 1; stroke-dasharray: none; stroke-linecap: butt; stroke-dashoffset: 0; stroke-linejoin: miter; stroke-miterlimit: 4; fill: rgb(208,40,40); fill-rule: nonzero; opacity: 1;" vector-effect="non-scaling-stroke"  transform=" translate(-41.3, -12.87)" d="M 44.2 17.39 C 43.40069915653218 18.121474448749968 42.34218079767455 18.503117122351696 41.260000000000005 18.45 L 37.260000000000005 18.45 L 37.260000000000005 7.3 L 41.260000000000005 7.3 C 42.34462676948424 7.24271855697297 43.40591522405041 7.62896979724025 44.2 8.37 C 45.46 9.62 45.330000000000005 11.149999999999999 45.330000000000005 12.829999999999998 C 45.330000000000005 14.509999999999998 45.46000000000001 16.13 44.2 17.389999999999997 M 42.68 9.93 C 42.28045652630312 9.45643680494569 41.677846125915615 9.20348922947439 41.06 9.25 L 39.41 9.25 L 39.41 16.509999999999998 L 41.059999999999995 16.509999999999998 C 41.67957100905587 16.554084816510574 42.282493667807216 16.297284424820187 42.67999999999999 15.819999999999999 C 43.08999999999999 15.319999999999999 43.14999999999999 14.519999999999998 43.14999999999999 12.819999999999999 C 43.14999999999999 11.12 43.08999999999999 10.419999999999998 42.67999999999999 9.919999999999998" stroke-linecap="round" />
</g>
		<g transform="matrix(1 0 0 1 -1.78 -9.13)"  >
<polygon style="stroke: none; stroke-width: 1; stroke-dasharray: none; stroke-linecap: butt; stroke-dashoffset: 0; stroke-linejoin: miter; stroke-miterlimit: 4; fill: rgb(208,40,40); fill-rule: nonzero; opacity: 1;" vector-effect="non-scaling-stroke"  points="-3.67,5.57 -3.67,-5.58 3.67,-5.58 3.67,-3.63 -1.49,-3.63 -1.49,-1.02 2.91,-1.02 2.91,0.93 -1.49,0.93 -1.49,3.64 3.67,3.64 3.67,5.57 -3.67,5.57 " />
</g>
		<g transform="matrix(1 0 0 1 9.07 -9.13)"  >
<polygon style="stroke: none; stroke-width: 1; stroke-dasharray: none; stroke-linecap: butt; stroke-dashoffset: 0; stroke-linejoin: miter; stroke-miterlimit: 4; fill: rgb(208,40,40); fill-rule: nonzero; opacity: 1;" vector-effect="non-scaling-stroke"  points="2.87,5.57 2.87,-0.93 0.74,3.3 -0.73,3.3 -2.87,-0.93 -2.87,5.57 -5.05,5.57 -5.05,-5.58 -2.9,-5.58 0.01,0.46 2.9,-5.58 5.05,-5.58 5.05,5.57 2.87,5.57 " />
</g>
		<g transform="matrix(1 0 0 1 21.31 -9.15)"  >
<path style="stroke: none; stroke-width: 1; stroke-dasharray: none; stroke-linecap: butt; stroke-dashoffset: 0; stroke-linejoin: miter; stroke-miterlimit: 4; fill: rgb(208,40,40); fill-rule: nonzero; opacity: 1;" vector-effect="non-scaling-stroke"  transform=" translate(-74.31, -12.85)" d="M 77.08 18.45 L 76.17 17.349999999999998 C 75.3371493545535 18.138503307134695 74.22660006841365 18.56619057267076 73.08 18.54 C 70.77 18.54 69.48 17.24 69.48 15.219999999999999 C 69.48 13.669999999999998 70.59 12.799999999999999 71.69 12.079999999999998 C 71.02245264480426 11.449064489737012 70.60968755296783 10.595067748006473 70.53 9.679999999999996 C 70.61665949926514 8.260660697529248 71.79301760758052 7.15393596310751 73.215 7.15393596310751 C 74.63698239241948 7.15393596310751 75.81334050073487 8.260660697529248 75.9 9.679999999999998 C 75.89057485576095 10.511796594799048 75.43653720593124 11.274885081907788 74.71000000000001 11.679999999999998 L 73.9 12.239999999999998 L 76.25 15 C 76.67623804377844 14.333476203756158 76.88259702316412 13.550011604054607 76.84 12.76 L 78.37 12.76 C 78.41302122712025 13.998032528240856 78.02019515815611 15.211900471075985 77.26 16.19 L 79.13000000000001 18.41 Z M 72.57 13.079999999999998 C 71.75 13.639999999999999 71.05999999999999 14.159999999999998 71.05999999999999 15.189999999999998 C 71.05927685993196 15.711725749895614 71.27312296077298 16.210793749241578 71.65137419727627 16.570132423919702 C 72.02962543377956 16.92947109859783 72.53899688901706 17.117459777526456 73.05999999999999 17.089999999999996 C 73.85597739305825 17.097269681305473 74.62221230925245 16.787897837208288 75.18999999999998 16.229999999999997 Z M 73.25999999999999 8.599999999999998 C 72.95961200817831 8.568103638531003 72.66090341194652 8.67370246741194 72.44730293967923 8.887302939679232 C 72.23370246741193 9.100903411946524 72.128103638531 9.399612008178321 72.16 9.699999999999998 C 72.16 10.149999999999997 72.46 10.579999999999998 73.02 11.229999999999997 L 73.55 10.869999999999997 C 74.00569911166471 10.651340594278631 74.31588651562356 10.212538900873431 74.36999999999999 9.709999999999997 C 74.37836774775752 9.413123494226433 74.2641108306461 9.125902690285914 74.05410407018009 8.915895929819904 C 73.84409730971409 8.705889169353895 73.55687650577357 8.591632252242471 73.26 8.6" stroke-linecap="round" />
</g>
		<g transform="matrix(1 0 0 1 31.89 -9.13)"  >
<path style="stroke: none; stroke-width: 1; stroke-dasharray: none; stroke-linecap: butt; stroke-dashoffset: 0; stroke-linejoin: miter; stroke-miterlimit: 4; fill: rgb(208,40,40); fill-rule: nonzero; opacity: 1;" vector-effect="non-scaling-stroke"  transform=" translate(-84.89, -12.87)" d="M 84.87 18.54 C 83.74495296153883 18.56224713858952 82.660211498382 18.121118943572405 81.87 17.32 C 80.75 16.2 80.78 14.8 80.78 12.879999999999999 C 80.78 10.959999999999997 80.78 9.559999999999999 81.87 8.43 C 82.66285525441344 7.632844917229825 83.74582598538103 7.192436819969675 84.87 7.210000000000001 C 86.96580869080717 7.092064943337717 88.78432298050468 8.641985112765141 89 10.729999999999999 L 86.76 10.73 C 86.6340101911036 10.019877781701828 86.12069428498545 9.440256246995991 85.43101102868481 9.229343936200689 C 84.74132777238417 9.018431625405386 83.99162114841674 9.2118077380667 83.49000000000001 9.73 C 83.07000000000001 10.200000000000001 82.94000000000001 10.73 82.94000000000001 12.88 C 82.94000000000001 15.030000000000001 83.07000000000001 15.55 83.49000000000001 16.02 C 83.99162114841674 16.5381922619333 84.74132777238417 16.731568374594616 85.43101102868481 16.52065606379931 C 86.12069428498545 16.30974375300401 86.6340101911036 15.730122218298174 86.76 15.020000000000001 L 89 15.02 C 88.78474084896499 17.09583619686377 86.98450210716943 18.64140701908824 84.9 18.54" stroke-linecap="round" />
</g>
		<g transform="matrix(1 0 0 1 41.6 -9.13)"  >
<path style="stroke: none; stroke-width: 1; stroke-dasharray: none; stroke-linecap: butt; stroke-dashoffset: 0; stroke-linejoin: miter; stroke-miterlimit: 4; fill: rgb(208,40,40); fill-rule: nonzero; opacity: 1;" vector-effect="non-scaling-stroke"  transform=" translate(-94.6, -12.88)" d="M 97.6 17.32 C 95.92204270794072 18.925098646041974 93.27795729205927 18.925098646041974 91.6 17.32 C 90.47 16.2 90.5 14.8 90.5 12.879999999999999 C 90.5 10.959999999999997 90.5 9.559999999999999 91.6 8.43 C 93.27795729205927 6.824901353958025 95.92204270794072 6.824901353958025 97.6 8.43 C 98.72 9.559999999999999 98.71 10.95 98.71 12.879999999999999 C 98.71 14.809999999999999 98.71 16.2 97.6 17.32 M 96 9.75 C 95.64269134666021 9.356065971044229 95.1316823336161 9.137062108311037 94.6 9.15 C 94.06587150714391 9.139409243353738 93.55271668113517 9.35777299910214 93.19 9.75 C 92.77 10.22 92.66 10.75 92.66 12.879999999999999 C 92.66 15.009999999999998 92.77 15.54 93.19 16.009999999999998 C 93.55375002530714 16.399614771020367 94.0671727174354 16.614451216662694 94.6 16.599999999999998 C 95.13194063677312 16.614283506390755 95.64348761719805 16.395049086208648 96 16 C 96.42 15.53 96.54 15 96.54 12.870000000000001 C 96.54 10.740000000000002 96.42 10.21 96 9.740000000000002" stroke-linecap="round" />
</g>
		<g transform="matrix(1 0 0 1 -36.7 7.33)"  >
<polygon style="stroke: none; stroke-width: 1; stroke-dasharray: none; stroke-linecap: butt; stroke-dashoffset: 0; stroke-linejoin: miter; stroke-miterlimit: 4; fill: rgb(208,40,40); fill-rule: nonzero; opacity: 1;" vector-effect="non-scaling-stroke"  points="5.08,7.34 2.69,7.34 -0.01,-1.57 -2.71,7.34 -5.1,7.34 -9.01,-7.34 -6.02,-7.34 -3.76,1.91 -1.08,-7.34 1.06,-7.34 3.74,1.91 6.02,-7.34 9.01,-7.34 5.08,7.34 " />
</g>
		<g transform="matrix(1 0 0 1 -21.15 7.34)"  >
<path style="stroke: none; stroke-width: 1; stroke-dasharray: none; stroke-linecap: butt; stroke-dashoffset: 0; stroke-linejoin: miter; stroke-miterlimit: 4; fill: rgb(208,40,40); fill-rule: nonzero; opacity: 1;" vector-effect="non-scaling-stroke"  transform=" translate(-31.85, -29.34)" d="M 35.81 35.18 C 33.60193479655395 37.32528203895777 30.088065203446057 37.32528203895777 27.880000000000003 35.18 C 26.400000000000002 33.7 26.44 31.87 26.44 29.34 C 26.44 26.81 26.44 24.97 27.880000000000003 23.490000000000002 C 30.088065203446057 21.344717961042228 33.60193479655395 21.344717961042228 35.81 23.490000000000002 C 37.29 24.970000000000002 37.27 26.8 37.27 29.340000000000003 C 37.27 31.880000000000006 37.27 33.7 35.81 35.18000000000001 M 33.690000000000005 25.180000000000007 C 33.22349354366125 24.657770321133945 32.54992361063893 24.368574534673275 31.850000000000005 24.390000000000008 C 31.147401926048268 24.369722373772472 30.471229908734117 24.658466100085 30.000000000000004 25.180000000000007 C 29.440000000000005 25.800000000000008 29.300000000000004 26.470000000000006 29.300000000000004 29.300000000000008 C 29.300000000000004 32.13000000000001 29.440000000000005 32.80000000000001 30.000000000000004 33.41000000000001 C 30.471229908734117 33.93153389991502 31.147401926048268 34.22027762622754 31.850000000000005 34.20000000000001 C 32.54992361063893 34.221425465326746 33.22349354366125 33.93222967886607 33.690000000000005 33.41000000000001 C 34.24 32.80000000000001 34.410000000000004 32.12000000000001 34.410000000000004 29.30000000000001 C 34.410000000000004 26.48000000000001 34.24 25.80000000000001 33.690000000000005 25.18000000000001" stroke-linecap="round" />
</g>
		<g transform="matrix(1 0 0 1 -7.27 7.33)"  >
<path style="stroke: none; stroke-width: 1; stroke-dasharray: none; stroke-linecap: butt; stroke-dashoffset: 0; stroke-linejoin: miter; stroke-miterlimit: 4; fill: rgb(208,40,40); fill-rule: nonzero; opacity: 1;" vector-effect="non-scaling-stroke"  transform=" translate(-45.73, -29.33)" d="M 48 36.67 L 45.13 30.82 L 43.13 30.82 L 43.13 36.67 L 40.19 36.67 L 40.19 22 L 45.94 22 C 47.17970623281017 21.907270596287404 48.40132829939807 22.339708489866158 49.30660428514185 23.191732947036783 C 50.211880270885636 24.043757404207405 50.71749447694847 25.236953649594042 50.699999999999996 26.480000000000004 C 50.73338352149743 28.216368362731053 49.64252160462347 29.77589688092864 48 30.34 L 51.27 36.67 Z M 45.75 24.56 L 43.06 24.56 L 43.06 28.43 L 45.75 28.43 C 46.474512821475564 28.482117786406004 47.167440294667415 28.125129375586457 47.54558533146932 27.504934709949588 C 47.923730368271215 26.884740044312714 47.923730368271215 26.10525995568728 47.54558533146932 25.48506529005041 C 47.167440294667415 24.86487062441354 46.474512821475564 24.507882213593994 45.75 24.56" stroke-linecap="round" />
</g>
		<g transform="matrix(1 0 0 1 6.59 7.33)"  >
<polygon style="stroke: none; stroke-width: 1; stroke-dasharray: none; stroke-linecap: butt; stroke-dashoffset: 0; stroke-linejoin: miter; stroke-miterlimit: 4; fill: rgb(208,40,40); fill-rule: nonzero; opacity: 1;" vector-effect="non-scaling-stroke"  points="2.59,7.34 -1.18,0.66 -3.07,2.92 -3.07,7.34 -5.93,7.34 -5.93,-7.34 -3.07,-7.34 -3.07,-0.95 2.1,-7.34 5.58,-7.34 0.72,-1.51 5.93,7.34 2.59,7.34 " />
</g>
		<g transform="matrix(1 0 0 1 15.78 7.34)"  >
<rect style="stroke: none; stroke-width: 1; stroke-dasharray: none; stroke-linecap: butt; stroke-dashoffset: 0; stroke-linejoin: miter; stroke-miterlimit: 4; fill: rgb(208,40,40); fill-rule: nonzero; opacity: 1;" vector-effect="non-scaling-stroke"  x="-1.43" y="-7.33" rx="0" ry="0" width="2.86" height="14.66" />
</g>
		<g transform="matrix(1 0 0 1 26.24 7.33)"  >
<polygon style="stroke: none; stroke-width: 1; stroke-dasharray: none; stroke-linecap: butt; stroke-dashoffset: 0; stroke-linejoin: miter; stroke-miterlimit: 4; fill: rgb(208,40,40); fill-rule: nonzero; opacity: 1;" vector-effect="non-scaling-stroke"  points="3.06,7.34 -2.75,-1.66 -2.75,7.34 -5.61,7.34 -5.61,-7.34 -3.06,-7.34 2.75,1.64 2.75,-7.34 5.61,-7.34 5.61,7.34 3.06,7.34 " />
</g>
		<g transform="matrix(1 0 0 1 40.23 7.33)"  >
<path style="stroke: none; stroke-width: 1; stroke-dasharray: none; stroke-linecap: butt; stroke-dashoffset: 0; stroke-linejoin: miter; stroke-miterlimit: 4; fill: rgb(208,40,40); fill-rule: nonzero; opacity: 1;" vector-effect="non-scaling-stroke"  transform=" translate(-93.23, -29.33)" d="M 97.31 35.12 C 95.07252373634675 37.32263776020777 91.48990033985771 37.34920851469347 89.22 35.18 C 87.73 33.7 87.78 31.87 87.78 29.34 C 87.78 26.81 87.78 24.97 89.22 23.490000000000002 C 90.71387060499596 22.020449778515513 92.90223520699809 21.505992275605813 94.89439250837435 22.15602037077505 C 96.88654980975062 22.806048465944286 98.35034933815992 24.512183599579572 98.69 26.580000000000005 L 95.81 26.580000000000002 C 95.62921730679682 25.283677567797746 94.47567286588641 24.348607452817333 93.17 24.44 C 92.4746075367947 24.41626198042605 91.80444690752141 24.701904215854007 91.34 25.220000000000002 C 90.78 25.840000000000003 90.64 26.51 90.64 29.340000000000003 C 90.64 32.17 90.78 32.86000000000001 91.34 33.470000000000006 C 91.8063038814777 33.984395522531145 92.47620453626521 34.26626628984611 93.17 34.24000000000001 C 93.92373578247224 34.25696521363197 94.64975643752571 33.95566664178478 95.17 33.41000000000001 C 95.62787407539439 32.86639707469995 95.8635957846023 32.16994657022203 95.83 31.46000000000001 L 95.83 30.9 L 93.13 30.9 L 93.13 28.51 L 98.67 28.51 L 98.67 30.650000000000002 C 98.67 32.77 98.3 34.050000000000004 97.27 35.120000000000005" stroke-linecap="round" />
</g>
</g>
</g>
</svg>