<svg id="Capa_1" data-name="Capa 1" xmlns="http://www.w3.org/2000/svg" viewBox="0 0 106 44"><defs><style>.cls-1{fill:#fff;}</style></defs><title>tandem-and-coworking-logo</title><polygon class="cls-1" points="24.39 0.62 22.38 3.62 102.43 3.62 102.43 40.38 3.57 40.38 3.57 3.62 19.85 3.62 20.97 0.62 0.58 0.62 0.58 43.38 105.42 43.38 105.42 0.62 24.39 0.62"/><polygon class="cls-1" points="12.38 9.24 12.38 18.45 10.2 18.45 10.2 9.24 7.29 9.24 7.29 7.3 15.29 7.3 15.29 9.24 12.38 9.24"/><path class="cls-1" d="M22.46,18.45l-.66-2h-4l-.67,2H14.9L19,7.3h1.71l4.07,11.15Zm-2.6-7.86-1.41,4.06h2.77Z"/><polygon class="cls-1" points="32.7 18.45 28.28 11.61 28.28 18.45 26.11 18.45 26.11 7.3 28.05 7.3 32.46 14.13 32.46 7.3 34.64 7.3 34.64 18.45 32.7 18.45"/><path class="cls-1" d="M44.2,17.39a4.06,4.06,0,0,1-2.94,1.06h-4V7.3h4A4,4,0,0,1,44.2,8.37c1.26,1.25,1.13,2.78,1.13,4.46s.13,3.3-1.13,4.56M42.68,9.93a1.93,1.93,0,0,0-1.62-.68H39.41v7.26h1.65a1.93,1.93,0,0,0,1.62-.69c.41-.5.47-1.3.47-3s-.06-2.4-.47-2.9"/><polygon class="cls-1" points="47.55 18.45 47.55 7.3 54.89 7.3 54.89 9.24 49.73 9.24 49.73 11.86 54.13 11.86 54.13 13.8 49.73 13.8 49.73 16.51 54.89 16.51 54.89 18.45 47.55 18.45"/><polygon class="cls-1" points="64.94 18.45 64.94 11.95 62.81 16.18 61.34 16.18 59.2 11.95 59.2 18.45 57.02 18.45 57.02 7.3 59.17 7.3 62.08 13.33 64.97 7.3 67.12 7.3 67.12 18.45 64.94 18.45"/><path class="cls-1" d="M77.08,18.45l-.91-1.1a4.35,4.35,0,0,1-3.09,1.19c-2.31,0-3.6-1.3-3.6-3.32,0-1.55,1.11-2.42,2.21-3.14a3.75,3.75,0,0,1-1.16-2.4,2.69,2.69,0,0,1,5.37,0,2.32,2.32,0,0,1-1.19,2l-.81.56L76.25,15a3.78,3.78,0,0,0,.59-2.24h1.53a5.29,5.29,0,0,1-1.11,3.43l1.87,2.22Zm-4.51-5.37c-.82.56-1.51,1.08-1.51,2.11a1.9,1.9,0,0,0,2,1.9,3,3,0,0,0,2.13-.86Zm.69-4.48a1,1,0,0,0-1.1,1.1c0,.45.3.88.86,1.53l.53-.36a1.46,1.46,0,0,0,.82-1.16A1.08,1.08,0,0,0,73.26,8.6"/><path class="cls-1" d="M84.87,18.54a4.1,4.1,0,0,1-3-1.22c-1.12-1.12-1.09-2.52-1.09-4.44s0-3.32,1.09-4.45a4.14,4.14,0,0,1,3-1.22A3.93,3.93,0,0,1,89,10.73H86.76a1.92,1.92,0,0,0-3.27-1c-.42.47-.55,1-.55,3.15s.13,2.67.55,3.14a1.92,1.92,0,0,0,3.27-1H89a3.93,3.93,0,0,1-4.1,3.52"/><path class="cls-1" d="M97.6,17.32a4.34,4.34,0,0,1-6,0c-1.13-1.12-1.1-2.52-1.1-4.44s0-3.32,1.1-4.45a4.34,4.34,0,0,1,6,0c1.12,1.13,1.11,2.52,1.11,4.45s0,3.32-1.11,4.44M96,9.75a1.83,1.83,0,0,0-1.4-.6,1.87,1.87,0,0,0-1.41.6c-.42.47-.53,1-.53,3.13s.11,2.66.53,3.13a1.86,1.86,0,0,0,1.41.59A1.82,1.82,0,0,0,96,16c.42-.47.54-1,.54-3.13s-.12-2.66-.54-3.13"/><polygon class="cls-1" points="21.38 36.67 18.99 36.67 16.29 27.77 13.59 36.67 11.2 36.67 7.29 22 10.28 22 12.54 31.25 15.22 22 17.36 22 20.04 31.25 22.32 22 25.31 22 21.38 36.67"/><path class="cls-1" d="M35.81,35.18a5.69,5.69,0,0,1-7.93,0c-1.48-1.48-1.44-3.31-1.44-5.84s0-4.37,1.44-5.85a5.69,5.69,0,0,1,7.93,0c1.48,1.48,1.46,3.31,1.46,5.85s0,4.36-1.46,5.84m-2.12-10a2.37,2.37,0,0,0-1.84-.79,2.4,2.4,0,0,0-1.85.79c-.56.62-.7,1.29-.7,4.12s.14,3.5.7,4.11a2.4,2.4,0,0,0,1.85.79,2.37,2.37,0,0,0,1.84-.79c.55-.61.72-1.29.72-4.11s-.17-3.5-.72-4.12"/><path class="cls-1" d="M48,36.67l-2.87-5.85h-2v5.85H40.19V22h5.75a4.43,4.43,0,0,1,4.76,4.48A4,4,0,0,1,48,30.34l3.27,6.33ZM45.75,24.56H43.06v3.87h2.69a1.94,1.94,0,1,0,0-3.87"/><polygon class="cls-1" points="62.18 36.67 58.41 30 56.52 32.26 56.52 36.67 53.66 36.67 53.66 22 56.52 22 56.52 28.39 61.69 22 65.17 22 60.31 27.83 65.52 36.67 62.18 36.67"/><rect class="cls-1" x="67.35" y="22.01" width="2.86" height="14.66"/><polygon class="cls-1" points="82.3 36.67 76.49 27.67 76.49 36.67 73.63 36.67 73.63 22 76.18 22 81.99 30.98 81.99 22 84.85 22 84.85 36.67 82.3 36.67"/><path class="cls-1" d="M97.31,35.12a5.81,5.81,0,0,1-8.09.06c-1.49-1.48-1.44-3.31-1.44-5.84s0-4.37,1.44-5.85a5.61,5.61,0,0,1,9.47,3.09H95.81a2.49,2.49,0,0,0-2.64-2.14,2.35,2.35,0,0,0-1.83.78c-.56.62-.7,1.29-.7,4.12s.14,3.52.7,4.13a2.35,2.35,0,0,0,1.83.77,2.68,2.68,0,0,0,2-.83,2.82,2.82,0,0,0,.66-1.95V30.9h-2.7V28.51h5.54v2.14c0,2.12-.37,3.4-1.4,4.47"/></svg>